{
	"accessors": [
		{
			"bufferView": 4,
			"byteOffset": 0,
			"componentType": 5123,
			"count": 9888,
			"type": "SCALAR"
		},
		{
			"bufferView": 5,
			"byteOffset": 0,
			"componentType": 5126,
			"count": 3568,
			"max": [
				1153.820556640625,
				129.84385681152344,
				0.0
			],
			"min": [
				1.1819336414337158,
				-2.026171922683716,
				-15.0
			],
			"type": "VEC3"
		},
		{
			"bufferView": 6,
			"byteOffset": 0,
			"componentType": 5126,
			"count": 3568,
			"type": "VEC3"
		}
	],
	"asset": {
		"extras": {
			"created": "Thu Mar 10 02:45:31 2022"
		},
		"generator": "Gestaltor 2022.1.0 Bavette Community",
		"version": "2.0"
	},
	"bufferViews": [
		{
			"buffer": 0,
			"byteLength": 163,
			"byteOffset": 0
		},
		{
			"buffer": 0,
			"byteLength": 163,
			"byteOffset": 163
		},
		{
			"buffer": 0,
			"byteLength": 163,
			"byteOffset": 326
		},
		{
			"buffer": 0,
			"byteLength": 163,
			"byteOffset": 489
		},
		{
			"buffer": 0,
			"byteLength": 19776,
			"byteOffset": 652,
			"target": 34963
		},
		{
			"buffer": 0,
			"byteLength": 42816,
			"byteOffset": 20428,
			"target": 34962
		},
		{
			"buffer": 0,
			"byteLength": 42816,
			"byteOffset": 63244,
			"target": 34962
		}
	],
	"buffers": [
		{
			"byteLength": 106060,
			"uri": "1.bin"
		}
	],
	"extensionsUsed": [
		"KHR_materials_pbrSpecularGlossiness"
	],
	"images": [
		{
			"bufferView": 0,
			"mimeType": "image/png"
		},
		{
			"bufferView": 1,
			"mimeType": "image/png"
		},
		{
			"bufferView": 2,
			"mimeType": "image/png"
		},
		{
			"bufferView": 3,
			"mimeType": "image/png"
		}
	],
	"materials": [
		{
			"doubleSided": true,
			"extensions": {
				"KHR_materials_pbrSpecularGlossiness": {
					"diffuseTexture": {
						"index": 0
					},
					"specularGlossinessTexture": {
						"index": 1
					}
				}
			},
			"extras": {
				"MSFT_sRGBFactors": false
			},
			"name": "83",
			"pbrMetallicRoughness": {
				"baseColorTexture": {
					"index": 2
				},
				"metallicRoughnessTexture": {
					"index": 3
				}
			}
		}
	],
	"meshes": [
		{
			"name": "mesh_id44",
			"primitives": [
				{
					"attributes": {
						"NORMAL": 2,
						"POSITION": 1
					},
					"indices": 0,
					"material": 0,
					"mode": 4
				}
			]
		}
	],
	"nodes": [
		{
			"mesh": 0,
			"translation": [
				-577.501220703125,
				-63.908843994140625,
				7.5
			]
		},
		{
			"children": [
				0
			],
			"name": "node_id40",
			"rotation": [
				-0.0,
				1.1920930376163597e-07,
				-0.0,
				1.0
			],
			"scale": [
				0.004867183975875378,
				0.004867183975875378,
				0.004867183975875378
			],
			"translation": [
				-0.339144766330719,
				-0.0005821838858537376,
				0.5996021032333374
			]
		},
		{
			"children": [
				1
			],
			"name": "root"
		}
	],
	"samplers": [
		{
			"minFilter": 9985
		}
	],
	"scene": 0,
	"scenes": [
		{
			"nodes": [
				2
			]
		}
	],
	"textures": [
		{
			"name": "texture738",
			"sampler": 0,
			"source": 0
		},
		{
			"name": "texture739",
			"sampler": 0,
			"source": 1
		},
		{
			"name": "83_bc",
			"sampler": 0,
			"source": 2
		},
		{
			"name": "83_mr",
			"sampler": 0,
			"source": 3
		}
	]
}