{
	"accessors": [
		{
			"bufferView": 0,
			"byteOffset": 0,
			"componentType": 5126,
			"count": 1233186,
			"max": [
				49.68154525756836,
				130.00001525878906,
				49.15199279785156
			],
			"min": [
				-49.68154525756836,
				0.0,
				-49.15199279785156
			],
			"type": "VEC3"
		}
	],
	"asset": {
		"extras": {
			"created": "Thu Mar 10 23:30:37 2022"
		},
		"generator": "Gestaltor 2022.1.0 Bavette Community",
		"version": "2.0"
	},
	"bufferViews": [
		{
			"buffer": 0,
			"byteLength": 14798232,
			"byteOffset": 0,
			"target": 34962
		}
	],
	"buffers": [
		{
			"byteLength": 14798232,
			"uri": "1.bin"
		}
	],
	"extensionsUsed": [
		"KHR_materials_pbrSpecularGlossiness"
	],
	"materials": [
		{
			"doubleSided": true,
			"extensions": {
				"KHR_materials_pbrSpecularGlossiness": {
					"diffuseFactor": [
						0.2195197343826294,
						0.2195197343826294,
						0.2195197343826294,
						1.0
					],
					"specularFactor": [
						0.0,
						0.0,
						0.0
					]
				}
			},
			"pbrMetallicRoughness": {}
		}
	],
	"meshes": [
		{
			"primitives": [
				{
					"attributes": {
						"POSITION": 0
					},
					"material": 0,
					"mode": 4
				}
			]
		}
	],
	"nodes": [
		{
			"mesh": 0,
			"name": "Asset3DLoader.sceneRoot"
		}
	],
	"scene": 0,
	"scenes": [
		{
			"nodes": [
				0
			]
		}
	]
}