{
	"accessors": [
		{
			"bufferView": 0,
			"byteOffset": 0,
			"componentType": 5126,
			"count": 744,
			"max": [
				83.28575134277344,
				77.15835571289063,
				22.0
			],
			"min": [
				-83.08610534667969,
				-79.40037536621094,
				0.0
			],
			"type": "VEC3"
		}
	],
	"asset": {
		"extras": {
			"created": "Thu Mar 10 23:36:03 2022"
		},
		"generator": "Gestaltor 2022.1.0 Bavette Community",
		"version": "2.0"
	},
	"bufferViews": [
		{
			"buffer": 0,
			"byteLength": 8928,
			"byteOffset": 0,
			"target": 34962
		}
	],
	"buffers": [
		{
			"byteLength": 8928,
			"uri": "1.bin"
		}
	],
	"extensionsUsed": [
		"KHR_materials_pbrSpecularGlossiness"
	],
	"materials": [
		{
			"doubleSided": true,
			"extensions": {
				"KHR_materials_pbrSpecularGlossiness": {
					"diffuseFactor": [
						0.2195197343826294,
						0.2195197343826294,
						0.2195197343826294,
						1.0
					],
					"specularFactor": [
						0.0,
						0.0,
						0.0
					]
				}
			},
			"pbrMetallicRoughness": {}
		}
	],
	"meshes": [
		{
			"primitives": [
				{
					"attributes": {
						"POSITION": 0
					},
					"material": 0,
					"mode": 4
				}
			]
		}
	],
	"nodes": [
		{
			"mesh": 0,
			"name": "3MFMeshParent_0",
			"rotation": [
				0.7071067690849304,
				0.0,
				0.0,
				-0.7071067690849304
			],
			"scale": [
				0.5,
				0.5,
				0.75
			],
			"translation": [
				89.9976577758789,
				0.0,
				-116.76481628417969
			]
		}
	],
	"scene": 0,
	"scenes": [
		{
			"nodes": [
				0
			]
		}
	]
}